<svg id="Group_2" data-name="Group 2" xmlns="http://www.w3.org/2000/svg" xmlns:xlink="http://www.w3.org/1999/xlink" width="55.864" height="64.041" viewBox="0 0 55.864 64.041">
  <defs>
    <clipPath id="clip-path">
      <rect id="Rectangle_7" data-name="Rectangle 7" width="55.864" height="64.041" fill="#fff"/>
    </clipPath>
  </defs>
  <g id="Group_1" data-name="Group 1" clip-path="url(#clip-path)">
    <path id="Path_1" data-name="Path 1" d="M34.308,47.066H32.541a2.6,2.6,0,0,0-2.6,2.6V76.183a2.6,2.6,0,0,0,2.6,2.6h1.767a2.6,2.6,0,0,0,2.6-2.6V49.669a2.6,2.6,0,0,0-2.6-2.6" transform="translate(-16.758 -26.345)" fill="#fff"/>
    <path id="Path_2" data-name="Path 2" d="M59.9,45.639H58.135a2.6,2.6,0,0,0-2.6,2.6V86.985a2.6,2.6,0,0,0,2.6,2.6H59.9a2.6,2.6,0,0,0,2.6-2.6V48.242a2.6,2.6,0,0,0-2.6-2.6" transform="translate(-31.084 -25.547)" fill="#fff"/>
    <path id="Path_3" data-name="Path 3" d="M84.14,45.639H82.373a2.6,2.6,0,0,0-2.6,2.6v17.25a2.6,2.6,0,0,0,2.6,2.6H84.14a2.6,2.6,0,0,0,2.6-2.6V48.242a2.6,2.6,0,0,0-2.6-2.6" transform="translate(-44.652 -25.547)" fill="#fff"/>
    <path id="Path_4" data-name="Path 4" d="M57.676,4.37V2.6a2.6,2.6,0,0,0-2.6-2.6H17.74a2.6,2.6,0,0,0-2.6,2.6V4.37a2.6,2.6,0,0,0,2.6,2.6H55.074a2.6,2.6,0,0,0,2.6-2.6" transform="translate(-8.473)" fill="#fff"/>
    <path id="Path_5" data-name="Path 5" d="M49.2,22.453H6.663C2.836,23.084,0,26.866,0,31.43,0,36.44,3.538,40.5,7.906,40.5h.023a2.245,2.245,0,0,0,2.193-2.269V36.956a2.246,2.246,0,0,0-1.256-1.992c-1.68-.856-2.745-2.122-2.745-3.534a3.187,3.187,0,0,1,.541-1.91H49.2a3.073,3.073,0,0,1,.539,1.873c.042,1.412-.985,2.708-2.638,3.614a2.247,2.247,0,0,0-1.2,2.028l.038,1.274a2.245,2.245,0,0,0,2.26,2.2h.023c4.366-.131,7.781-4.294,7.631-9.3-.136-4.561-2.814-8.24-6.657-8.756" transform="translate(0 -12.568)" fill="#fff"/>
  </g>
</svg>
